<?xml version="1.0" encoding="UTF-8" standalone="no"?>
<!DOCTYPE svg PUBLIC "-//W3C//DTD SVG 1.1//EN"
 "http://www.w3.org/Graphics/SVG/1.1/DTD/svg11.dtd">
<!-- Generated by graphviz version 14.1.2 (0)
 -->
<!-- Title: GDALG Workflow Pages: 1 -->
<svg width="681pt" height="320pt"
 viewBox="0.00 0.00 681.00 320.00" xmlns="http://www.w3.org/2000/svg" xmlns:xlink="http://www.w3.org/1999/xlink">
<g id="graph0" class="graph" transform="scale(1 1) rotate(0) translate(4 316.4)">
<title>GDALG Workflow</title>
<polygon fill="white" stroke="none" points="-4,4 -4,-316.4 676.71,-316.4 676.71,4 -4,4"/>
<!-- 0 -->
<g id="node1" class="node">
<title>0</title>
<polygon fill="#cfe2ff" stroke="none" points="0,-203.2 0,-234 52.14,-234 52.14,-203.2 0,-203.2"/>
<polygon fill="none" stroke="black" points="0,-203.2 0,-234 52.14,-234 52.14,-203.2 0,-203.2"/>
<text xml:space="preserve" text-anchor="start" x="11.28" y="-215.4" font-family="Helvetica,sans-Serif" font-weight="bold" font-size="14.00">read</text>
<polygon fill="none" stroke="black" points="0,-172.4 0,-203.2 52.14,-203.2 52.14,-172.4 0,-172.4"/>
<text xml:space="preserve" text-anchor="start" x="7" y="-183.6" font-family="Helvetica,sans-Serif" font-size="14.00">n43.tif</text>
</g>
<!-- 1 -->
<g id="node2" class="node">
<title>1</title>
<g id="a_node2"><a xlink:href="https://gdal.org/en/latest/programs/gdal_raster_color_map.html" xlink:title="https://gdal.org/en/latest/programs/gdal_raster_color_map.html">
<polygon fill="#cfe2ff" stroke="none" points="88.14,-203.2 88.14,-234 252.29,-234 252.29,-203.2 88.14,-203.2"/>
<polygon fill="none" stroke="black" points="88.14,-203.2 88.14,-234 252.29,-234 252.29,-203.2 88.14,-203.2"/>
<text xml:space="preserve" text-anchor="start" x="136.38" y="-215.4" font-family="Helvetica,sans-Serif" font-weight="bold" font-size="14.00">color&#45;map</text>
<polygon fill="none" stroke="black" points="88.14,-172.4 88.14,-203.2 252.29,-203.2 252.29,-172.4 88.14,-172.4"/>
<text xml:space="preserve" text-anchor="start" x="95.14" y="-183.6" font-family="Helvetica,sans-Serif" font-size="14.00">&#45;&#45;color&#45;map color_file.txt</text>
</a>
</g>
</g>
<!-- 0&#45;&gt;1 -->
<g id="edge1" class="edge">
<title>0&#45;&gt;1</title>
<path fill="none" stroke="black" d="M51.83,-203.2C59.24,-203.2 67.83,-203.2 76.94,-203.2"/>
<polygon fill="black" stroke="black" points="76.75,-206.7 86.75,-203.2 76.75,-199.7 76.75,-206.7"/>
</g>
<!-- 2 -->
<g id="node3" class="node">
<title>2</title>
<polygon fill="#cfe2ff" stroke="none" points="288.29,-187.8 288.29,-218.6 322.52,-218.6 322.52,-187.8 288.29,-187.8"/>
<polygon fill="none" stroke="black" points="288.29,-187.8 288.29,-218.6 322.52,-218.6 322.52,-187.8 288.29,-187.8"/>
<text xml:space="preserve" text-anchor="start" x="295.29" y="-200" font-family="Helvetica,sans-Serif" font-weight="bold" font-size="14.00">tee</text>
</g>
<!-- 1&#45;&gt;2 -->
<g id="edge2" class="edge">
<title>1&#45;&gt;2</title>
<path fill="none" stroke="black" d="M252.15,-203.2C261.19,-203.2 269.86,-203.2 277.45,-203.2"/>
<polygon fill="black" stroke="black" points="277.22,-206.7 287.22,-203.2 277.22,-199.7 277.22,-206.7"/>
</g>
<!-- 3 -->
<g id="node4" class="node">
<title>3</title>
<polygon fill="#cfe2ff" stroke="none" points="390.25,-281.6 390.25,-312.4 470.36,-312.4 470.36,-281.6 390.25,-281.6"/>
<polygon fill="none" stroke="black" points="390.25,-281.6 390.25,-312.4 470.36,-312.4 470.36,-281.6 390.25,-281.6"/>
<text xml:space="preserve" text-anchor="start" x="413.97" y="-293.8" font-family="Helvetica,sans-Serif" font-weight="bold" font-size="14.00">write</text>
<polygon fill="none" stroke="black" points="390.25,-250.8 390.25,-281.6 470.36,-281.6 470.36,-250.8 390.25,-250.8"/>
<text xml:space="preserve" text-anchor="start" x="397.25" y="-262" font-family="Helvetica,sans-Serif" font-size="14.00">colored.tif</text>
<polygon fill="none" stroke="black" points="390.25,-220 390.25,-250.8 470.36,-250.8 470.36,-220 390.25,-220"/>
<text xml:space="preserve" text-anchor="start" x="397.25" y="-231.2" font-family="Helvetica,sans-Serif" font-size="14.00">&#45;&#45;overwrite</text>
</g>
<!-- 2&#45;&gt;3 -->
<g id="edge3" class="edge">
<title>2&#45;&gt;3</title>
<path fill="none" stroke="black" d="M322.47,-211.44C337.17,-218.97 359.68,-230.51 380.26,-241.06"/>
<polygon fill="black" stroke="black" points="378.64,-244.16 389.13,-245.61 381.83,-237.93 378.64,-244.16"/>
</g>
<!-- 4 -->
<g id="node5" class="node">
<title>4</title>
<g id="a_node5"><a xlink:href="https://gdal.org/en/latest/programs/gdal_raster_blend.html" xlink:title="https://gdal.org/en/latest/programs/gdal_raster_blend.html">
<polygon fill="#cfe2ff" stroke="none" points="358.52,-171.6 358.52,-202.4 502.08,-202.4 502.08,-171.6 358.52,-171.6"/>
<polygon fill="none" stroke="black" points="358.52,-171.6 358.52,-202.4 502.08,-202.4 502.08,-171.6 358.52,-171.6"/>
<text xml:space="preserve" text-anchor="start" x="411.64" y="-183.8" font-family="Helvetica,sans-Serif" font-weight="bold" font-size="14.00">blend</text>
<polygon fill="none" stroke="black" points="358.52,-140.8 358.52,-171.6 502.08,-171.6 502.08,-140.8 358.52,-140.8"/>
<text xml:space="preserve" text-anchor="start" x="365.52" y="-152" font-family="Helvetica,sans-Serif" font-size="14.00">&#45;&#45;operator=hsv&#45;value</text>
<polygon fill="none" stroke="black" points="358.52,-110 358.52,-140.8 502.08,-140.8 502.08,-110 358.52,-110"/>
<text xml:space="preserve" text-anchor="start" x="365.52" y="-121.2" font-family="Helvetica,sans-Serif" font-size="14.00">&#45;&#45;overlay</text>
</a>
</g>
</g>
<!-- 2&#45;&gt;4 -->
<g id="edge4" class="edge">
<title>2&#45;&gt;4</title>
<path fill="none" stroke="black" d="M322.47,-197.06C329.54,-194.35 338.43,-190.95 348.04,-187.28"/>
<polygon fill="black" stroke="black" points="349.19,-190.59 357.28,-183.74 346.69,-184.05 349.19,-190.59"/>
</g>
<!-- 9 -->
<g id="node10" class="node">
<title>9</title>
<polygon fill="#cfe2ff" stroke="none" points="538.08,-171.6 538.08,-202.4 672.71,-202.4 672.71,-171.6 538.08,-171.6"/>
<polygon fill="none" stroke="black" points="538.08,-171.6 538.08,-202.4 672.71,-202.4 672.71,-171.6 538.08,-171.6"/>
<text xml:space="preserve" text-anchor="start" x="589.06" y="-183.8" font-family="Helvetica,sans-Serif" font-weight="bold" font-size="14.00">write</text>
<polygon fill="none" stroke="black" points="538.08,-140.8 538.08,-171.6 672.71,-171.6 672.71,-140.8 538.08,-140.8"/>
<text xml:space="preserve" text-anchor="start" x="545.08" y="-152" font-family="Helvetica,sans-Serif" font-size="14.00">colored&#45;hillshade.tif</text>
<polygon fill="none" stroke="black" points="538.08,-110 538.08,-140.8 672.71,-140.8 672.71,-110 538.08,-110"/>
<text xml:space="preserve" text-anchor="start" x="545.08" y="-121.2" font-family="Helvetica,sans-Serif" font-size="14.00">&#45;&#45;overwrite</text>
</g>
<!-- 4&#45;&gt;9 -->
<g id="edge9" class="edge">
<title>4&#45;&gt;9</title>
<path fill="none" stroke="black" d="M501.71,-156.2C510.01,-156.2 518.51,-156.2 526.91,-156.2"/>
<polygon fill="black" stroke="black" points="526.73,-159.7 536.73,-156.2 526.73,-152.7 526.73,-159.7"/>
</g>
<!-- 5 -->
<g id="node6" class="node">
<title>5</title>
<polygon fill="#cfe2ff" stroke="none" points="0,-108.2 0,-139 52.14,-139 52.14,-108.2 0,-108.2"/>
<polygon fill="none" stroke="black" points="0,-108.2 0,-139 52.14,-139 52.14,-108.2 0,-108.2"/>
<text xml:space="preserve" text-anchor="start" x="11.28" y="-120.4" font-family="Helvetica,sans-Serif" font-weight="bold" font-size="14.00">read</text>
<polygon fill="none" stroke="black" points="0,-77.4 0,-108.2 52.14,-108.2 52.14,-77.4 0,-77.4"/>
<text xml:space="preserve" text-anchor="start" x="7" y="-88.6" font-family="Helvetica,sans-Serif" font-size="14.00">n43.tif</text>
</g>
<!-- 6 -->
<g id="node7" class="node">
<title>6</title>
<g id="a_node7"><a xlink:href="https://gdal.org/en/latest/programs/gdal_raster_hillshade.html" xlink:title="https://gdal.org/en/latest/programs/gdal_raster_hillshade.html">
<polygon fill="#cfe2ff" stroke="none" points="132.87,-108.2 132.87,-139 207.55,-139 207.55,-108.2 132.87,-108.2"/>
<polygon fill="none" stroke="black" points="132.87,-108.2 132.87,-139 207.55,-139 207.55,-108.2 132.87,-108.2"/>
<text xml:space="preserve" text-anchor="start" x="139.87" y="-120.4" font-family="Helvetica,sans-Serif" font-weight="bold" font-size="14.00">hillshade</text>
<polygon fill="none" stroke="black" points="132.87,-77.4 132.87,-108.2 207.55,-108.2 207.55,-77.4 132.87,-77.4"/>
<text xml:space="preserve" text-anchor="start" x="139.87" y="-88.6" font-family="Helvetica,sans-Serif" font-size="14.00">&#45;z 30</text>
</a>
</g>
</g>
<!-- 5&#45;&gt;6 -->
<g id="edge5" class="edge">
<title>5&#45;&gt;6</title>
<path fill="none" stroke="black" d="M51.83,-108.2C71.02,-108.2 98.18,-108.2 121.55,-108.2"/>
<polygon fill="black" stroke="black" points="121.5,-111.7 131.5,-108.2 121.5,-104.7 121.5,-111.7"/>
</g>
<!-- 7 -->
<g id="node8" class="node">
<title>7</title>
<polygon fill="#cfe2ff" stroke="none" points="288.29,-92.8 288.29,-123.6 322.52,-123.6 322.52,-92.8 288.29,-92.8"/>
<polygon fill="none" stroke="black" points="288.29,-92.8 288.29,-123.6 322.52,-123.6 322.52,-92.8 288.29,-92.8"/>
<text xml:space="preserve" text-anchor="start" x="295.29" y="-105" font-family="Helvetica,sans-Serif" font-weight="bold" font-size="14.00">tee</text>
</g>
<!-- 6&#45;&gt;7 -->
<g id="edge6" class="edge">
<title>6&#45;&gt;7</title>
<path fill="none" stroke="black" d="M207.26,-108.2C229.2,-108.2 256.8,-108.2 276.97,-108.2"/>
<polygon fill="black" stroke="black" points="276.94,-111.7 286.94,-108.2 276.94,-104.7 276.94,-111.7"/>
</g>
<!-- 7&#45;&gt;4 -->
<g id="edge8" class="edge">
<title>7&#45;&gt;4</title>
<path fill="none" stroke="black" d="M322.47,-114.48C329.54,-117.24 338.43,-120.71 348.04,-124.46"/>
<polygon fill="black" stroke="black" points="346.7,-127.69 357.28,-128.07 349.24,-121.17 346.7,-127.69"/>
</g>
<!-- 8 -->
<g id="node9" class="node">
<title>8</title>
<polygon fill="#cfe2ff" stroke="none" points="388.28,-61.6 388.28,-92.4 472.32,-92.4 472.32,-61.6 388.28,-61.6"/>
<polygon fill="none" stroke="black" points="388.28,-61.6 388.28,-92.4 472.32,-92.4 472.32,-61.6 388.28,-61.6"/>
<text xml:space="preserve" text-anchor="start" x="413.97" y="-73.8" font-family="Helvetica,sans-Serif" font-weight="bold" font-size="14.00">write</text>
<polygon fill="none" stroke="black" points="388.28,-30.8 388.28,-61.6 472.32,-61.6 472.32,-30.8 388.28,-30.8"/>
<text xml:space="preserve" text-anchor="start" x="395.28" y="-42" font-family="Helvetica,sans-Serif" font-size="14.00">hillshade.tif</text>
<polygon fill="none" stroke="black" points="388.28,0 388.28,-30.8 472.32,-30.8 472.32,0 388.28,0"/>
<text xml:space="preserve" text-anchor="start" x="395.28" y="-11.2" font-family="Helvetica,sans-Serif" font-size="14.00">&#45;&#45;overwrite</text>
</g>
<!-- 7&#45;&gt;8 -->
<g id="edge7" class="edge">
<title>7&#45;&gt;8</title>
<path fill="none" stroke="black" d="M322.47,-100.09C336.66,-92.94 358.13,-82.11 378.11,-72.03"/>
<polygon fill="black" stroke="black" points="379.68,-75.16 387.03,-67.53 376.52,-68.91 379.68,-75.16"/>
</g>
</g>
</svg>
