<?xml version="1.0" encoding="UTF-8" standalone="no"?>
<!DOCTYPE svg PUBLIC "-//W3C//DTD SVG 1.1//EN"
 "http://www.w3.org/Graphics/SVG/1.1/DTD/svg11.dtd">
<!-- Generated by graphviz version 14.1.2 (0)
 -->
<!-- Title: GDALG Workflow Pages: 1 -->
<svg width="556pt" height="150pt"
 viewBox="0.00 0.00 556.00 150.00" xmlns="http://www.w3.org/2000/svg" xmlns:xlink="http://www.w3.org/1999/xlink">
<g id="graph0" class="graph" transform="scale(1 1) rotate(0) translate(4 145.6)">
<title>GDALG Workflow</title>
<polygon fill="white" stroke="none" points="-4,4 -4,-145.6 551.97,-145.6 551.97,4 -4,4"/>
<!-- 0 -->
<g id="node1" class="node">
<title>0</title>
<polygon fill="#cfe2ff" stroke="none" points="0,-110.8 0,-141.6 52.14,-141.6 52.14,-110.8 0,-110.8"/>
<polygon fill="none" stroke="black" points="0,-110.8 0,-141.6 52.14,-141.6 52.14,-110.8 0,-110.8"/>
<text xml:space="preserve" text-anchor="start" x="11.28" y="-123" font-family="Helvetica,sans-Serif" font-weight="bold" font-size="14.00">read</text>
<polygon fill="none" stroke="black" points="0,-80 0,-110.8 52.14,-110.8 52.14,-80 0,-80"/>
<text xml:space="preserve" text-anchor="start" x="7" y="-91.2" font-family="Helvetica,sans-Serif" font-size="14.00">n43.tif</text>
</g>
<!-- 1 -->
<g id="node2" class="node">
<title>1</title>
<g id="a_node2"><a xlink:href="https://gdal.org/en/latest/programs/gdal_raster_color_map.html" xlink:title="https://gdal.org/en/latest/programs/gdal_raster_color_map.html">
<polygon fill="#cfe2ff" stroke="none" points="88.14,-110.8 88.14,-141.6 252.29,-141.6 252.29,-110.8 88.14,-110.8"/>
<polygon fill="none" stroke="black" points="88.14,-110.8 88.14,-141.6 252.29,-141.6 252.29,-110.8 88.14,-110.8"/>
<text xml:space="preserve" text-anchor="start" x="136.38" y="-123" font-family="Helvetica,sans-Serif" font-weight="bold" font-size="14.00">color&#45;map</text>
<polygon fill="none" stroke="black" points="88.14,-80 88.14,-110.8 252.29,-110.8 252.29,-80 88.14,-80"/>
<text xml:space="preserve" text-anchor="start" x="95.14" y="-91.2" font-family="Helvetica,sans-Serif" font-size="14.00">&#45;&#45;color&#45;map color_file.txt</text>
</a>
</g>
</g>
<!-- 0&#45;&gt;1 -->
<g id="edge1" class="edge">
<title>0&#45;&gt;1</title>
<path fill="none" stroke="black" d="M51.83,-110.8C59.24,-110.8 67.83,-110.8 76.94,-110.8"/>
<polygon fill="black" stroke="black" points="76.75,-114.3 86.75,-110.8 76.75,-107.3 76.75,-114.3"/>
</g>
<!-- 2 -->
<g id="node3" class="node">
<title>2</title>
<g id="a_node3"><a xlink:href="https://gdal.org/en/latest/programs/gdal_raster_blend.html" xlink:title="https://gdal.org/en/latest/programs/gdal_raster_blend.html">
<polygon fill="#cfe2ff" stroke="none" points="288.29,-86.2 288.29,-117 431.85,-117 431.85,-86.2 288.29,-86.2"/>
<polygon fill="none" stroke="black" points="288.29,-86.2 288.29,-117 431.85,-117 431.85,-86.2 288.29,-86.2"/>
<text xml:space="preserve" text-anchor="start" x="341.4" y="-98.4" font-family="Helvetica,sans-Serif" font-weight="bold" font-size="14.00">blend</text>
<polygon fill="none" stroke="black" points="288.29,-55.4 288.29,-86.2 431.85,-86.2 431.85,-55.4 288.29,-55.4"/>
<text xml:space="preserve" text-anchor="start" x="295.29" y="-66.6" font-family="Helvetica,sans-Serif" font-size="14.00">&#45;&#45;operator=hsv&#45;value</text>
<polygon fill="none" stroke="black" points="288.29,-24.6 288.29,-55.4 431.85,-55.4 431.85,-24.6 288.29,-24.6"/>
<text xml:space="preserve" text-anchor="start" x="295.29" y="-35.8" font-family="Helvetica,sans-Serif" font-size="14.00">&#45;&#45;overlay</text>
</a>
</g>
</g>
<!-- 1&#45;&gt;2 -->
<g id="edge2" class="edge">
<title>1&#45;&gt;2</title>
<path fill="none" stroke="black" d="M252.24,-93.55C260.51,-91.79 268.9,-90 277.17,-88.24"/>
<polygon fill="black" stroke="black" points="277.81,-91.68 286.87,-86.17 276.36,-84.83 277.81,-91.68"/>
</g>
<!-- 5 -->
<g id="node6" class="node">
<title>5</title>
<polygon fill="#cfe2ff" stroke="none" points="467.85,-86.2 467.85,-117 547.97,-117 547.97,-86.2 467.85,-86.2"/>
<polygon fill="none" stroke="black" points="467.85,-86.2 467.85,-117 547.97,-117 547.97,-86.2 467.85,-86.2"/>
<text xml:space="preserve" text-anchor="start" x="491.57" y="-98.4" font-family="Helvetica,sans-Serif" font-weight="bold" font-size="14.00">write</text>
<polygon fill="none" stroke="black" points="467.85,-55.4 467.85,-86.2 547.97,-86.2 547.97,-55.4 467.85,-55.4"/>
<text xml:space="preserve" text-anchor="start" x="474.85" y="-66.6" font-family="Helvetica,sans-Serif" font-size="14.00">out.tif</text>
<polygon fill="none" stroke="black" points="467.85,-24.6 467.85,-55.4 547.97,-55.4 547.97,-24.6 467.85,-24.6"/>
<text xml:space="preserve" text-anchor="start" x="474.85" y="-35.8" font-family="Helvetica,sans-Serif" font-size="14.00">&#45;&#45;overwrite</text>
</g>
<!-- 2&#45;&gt;5 -->
<g id="edge5" class="edge">
<title>2&#45;&gt;5</title>
<path fill="none" stroke="black" d="M431.43,-70.8C440.04,-70.8 448.7,-70.8 456.93,-70.8"/>
<polygon fill="black" stroke="black" points="456.71,-74.3 466.71,-70.8 456.71,-67.3 456.71,-74.3"/>
</g>
<!-- 3 -->
<g id="node4" class="node">
<title>3</title>
<polygon fill="#cfe2ff" stroke="none" points="0,-30.8 0,-61.6 52.14,-61.6 52.14,-30.8 0,-30.8"/>
<polygon fill="none" stroke="black" points="0,-30.8 0,-61.6 52.14,-61.6 52.14,-30.8 0,-30.8"/>
<text xml:space="preserve" text-anchor="start" x="11.28" y="-43" font-family="Helvetica,sans-Serif" font-weight="bold" font-size="14.00">read</text>
<polygon fill="none" stroke="black" points="0,0 0,-30.8 52.14,-30.8 52.14,0 0,0"/>
<text xml:space="preserve" text-anchor="start" x="7" y="-11.2" font-family="Helvetica,sans-Serif" font-size="14.00">n43.tif</text>
</g>
<!-- 4 -->
<g id="node5" class="node">
<title>4</title>
<g id="a_node5"><a xlink:href="https://gdal.org/en/latest/programs/gdal_raster_hillshade.html" xlink:title="https://gdal.org/en/latest/programs/gdal_raster_hillshade.html">
<polygon fill="#cfe2ff" stroke="none" points="132.87,-30.8 132.87,-61.6 207.55,-61.6 207.55,-30.8 132.87,-30.8"/>
<polygon fill="none" stroke="black" points="132.87,-30.8 132.87,-61.6 207.55,-61.6 207.55,-30.8 132.87,-30.8"/>
<text xml:space="preserve" text-anchor="start" x="139.87" y="-43" font-family="Helvetica,sans-Serif" font-weight="bold" font-size="14.00">hillshade</text>
<polygon fill="none" stroke="black" points="132.87,0 132.87,-30.8 207.55,-30.8 207.55,0 132.87,0"/>
<text xml:space="preserve" text-anchor="start" x="139.87" y="-11.2" font-family="Helvetica,sans-Serif" font-size="14.00">&#45;z 30</text>
</a>
</g>
</g>
<!-- 3&#45;&gt;4 -->
<g id="edge3" class="edge">
<title>3&#45;&gt;4</title>
<path fill="none" stroke="black" d="M51.83,-30.8C71.02,-30.8 98.18,-30.8 121.55,-30.8"/>
<polygon fill="black" stroke="black" points="121.5,-34.3 131.5,-30.8 121.5,-27.3 121.5,-34.3"/>
</g>
<!-- 4&#45;&gt;2 -->
<g id="edge4" class="edge">
<title>4&#45;&gt;2</title>
<path fill="none" stroke="black" d="M207.43,-38.51C227.31,-42.75 252.82,-48.18 277.22,-53.37"/>
<polygon fill="black" stroke="black" points="276.34,-56.76 286.85,-55.42 277.8,-49.92 276.34,-56.76"/>
</g>
</g>
</svg>
